<svg width="34" height="34" viewBox="0 0 34 34" fill="none" xmlns="http://www.w3.org/2000/svg">
<path fill-rule="evenodd" clip-rule="evenodd" d="M7.85376 11.4191C7.86624 11.1645 8.00714 10.9337 8.22786 10.8063L9.31946 10.176C9.33201 10.1688 9.34476 10.1619 9.35771 10.1554C9.50942 10.0792 9.67587 10.0368 9.84556 10.0312C10.0088 10.0259 10.1713 10.0547 10.3226 10.1158L18.9739 13.3611L21.2835 11.9457C21.4456 11.84 21.9056 11.5697 22.034 11.4955C22.9804 10.9491 23.8881 10.594 24.6702 10.5083C25.4468 10.4233 26.2952 10.5997 26.7428 11.375C27.1906 12.1506 26.9179 12.9753 26.457 13.6055C25.992 14.2414 25.2314 14.8511 24.2868 15.3964C24.1569 15.4714 23.6958 15.7328 23.5218 15.8212L21.1409 17.1127L19.6127 26.2324C19.5897 26.3936 19.5335 26.5484 19.4473 26.6868C19.3577 26.8306 19.2381 26.9533 19.0965 27.0464C19.0843 27.0545 19.0719 27.0621 19.0593 27.0694L17.9779 27.6937C17.7572 27.8212 17.4868 27.8278 17.2601 27.7113C17.0335 27.5949 16.8814 27.3713 16.8565 27.1176L16.1399 19.8319L12.1612 22.0118L11.7312 24.5755C11.7304 24.5813 11.7295 24.5876 11.7286 24.5941C11.7102 24.7224 11.6744 24.9722 11.5268 25.1984C11.3667 25.4437 11.1315 25.5843 10.9686 25.6784L10.2412 26.0984C10.1613 26.1444 9.74734 26.3707 9.33213 26.0738C9.16699 25.9557 9.08946 25.8063 9.05597 25.7303C9.02339 25.6563 9.00534 25.5881 8.99583 25.5484L8.13506 22.1994C8.12873 22.1748 8.12366 22.1499 8.11986 22.1247C8.11933 22.1212 8.1175 22.1181 8.11473 22.1159C8.09466 22.0998 8.07542 22.0828 8.05709 22.0648L5.58127 19.6339C5.58093 19.6336 5.58054 19.6333 5.58011 19.6328C5.5596 19.6137 5.4274 19.4903 5.3553 19.305C5.30751 19.1821 5.26427 18.9772 5.34816 18.7472C5.43059 18.5212 5.59136 18.3933 5.70173 18.3296L6.46735 17.8876C6.80611 17.692 7.32405 17.5733 7.804 17.7652L10.1931 18.6619L14.1101 16.3225L8.16617 12.0655C7.95896 11.9171 7.84129 11.6736 7.85376 11.4191ZM10.3697 18.7285L10.3608 18.725C10.3638 18.7261 10.3667 18.7273 10.3697 18.7285ZM12.1916 21.8297C12.1913 21.832 12.1909 21.8344 12.1905 21.8367L12.1916 21.8297ZM10.1848 11.6662L15.774 15.6691C15.8933 15.7536 15.9891 15.8671 16.0524 15.9989C16.117 16.1334 16.1455 16.2824 16.1351 16.4312C16.1246 16.5801 16.0757 16.7236 15.993 16.8478C15.9177 16.9609 15.8168 17.0544 15.6988 17.1208L10.817 20.0365C10.6677 20.1274 10.4994 20.1825 10.3251 20.1972C10.1526 20.2118 9.97904 20.1865 9.81793 20.1233L7.27469 19.1688C7.27429 19.1688 7.27387 19.1689 7.27344 19.1689C7.26727 19.1697 7.26023 19.171 7.25278 19.1729L9.08515 20.972C9.35266 21.1989 9.53316 21.5116 9.59573 21.8567L10.2408 24.3664C10.2427 24.3653 10.2445 24.3642 10.2463 24.3632C10.247 24.3585 10.2477 24.3537 10.2485 24.3486L10.2505 24.3347L10.2507 24.3347L10.7091 21.6013C10.7356 21.4313 10.8005 21.2696 10.8988 21.1284C10.9989 20.9846 11.1309 20.866 11.2845 20.7818L11.2846 20.7817L16.2468 18.0629L16.2471 18.0628C16.3722 17.9943 16.5122 17.9573 16.6549 17.9552C16.7976 17.9531 16.9386 17.9858 17.0658 18.0506C17.1929 18.1153 17.3023 18.2101 17.3845 18.3268C17.4667 18.4434 17.5192 18.5783 17.5374 18.7199C17.5383 18.7273 17.5392 18.7347 17.5399 18.7421L18.2083 25.5372L19.71 16.575C19.7331 16.4148 19.8001 16.3014 19.8305 16.2539C19.8735 16.1866 19.919 16.1359 19.9505 16.1037C20.0088 16.0442 20.0834 15.983 20.1652 15.9358L20.1826 15.926L22.8165 14.4974C22.8239 14.4933 22.8314 14.4894 22.839 14.4856C22.9534 14.4285 23.3931 14.1804 23.5368 14.0974C24.3893 13.6052 24.953 13.1209 25.2462 12.72C25.5436 12.3135 25.4631 12.1585 25.4437 12.125C25.4242 12.0912 25.3317 11.9449 24.8335 11.9994C24.341 12.0534 23.6401 12.3003 22.784 12.7945C22.6401 12.8777 22.2022 13.1362 22.1 13.204C22.0925 13.209 22.0849 13.2138 22.0772 13.2186L19.4879 14.8053C19.3631 14.8838 19.2195 14.9279 19.0719 14.9329C18.9475 14.9372 18.8241 14.9136 18.7107 14.8644L10.1848 11.6662ZM10.4543 25.1977L10.4535 25.1945C10.4547 25.1991 10.4549 25.2004 10.4543 25.1977Z" fill="black"/>
</svg>
