<svg width="24" height="19" viewBox="0 0 24 19" fill="none" xmlns="http://www.w3.org/2000/svg">
<path d="M0.37207 13.5654C0.37207 16.4219 5.18848 18.3643 11.9912 18.3643C18.8115 18.3643 23.6191 16.4219 23.6191 13.5654C23.6191 12.2734 22.626 11.1572 20.8945 10.3223C22.3447 10.0146 23.1973 9.00391 23.1973 7.51855C23.1973 5.7959 22.0459 4.72363 20.1475 4.62695C20.0771 2.4209 16.8164 0.953125 11.9912 0.953125C7.12207 0.953125 3.83496 2.45605 3.83496 4.70605V6.56934C3.83496 7.74707 4.03711 8.83691 4.40625 9.8125C1.85742 10.6562 0.37207 11.9746 0.37207 13.5654ZM11.9912 6.83301C8.25586 6.83301 5.46094 5.89258 5.46094 4.70605C5.46094 3.51953 8.25586 2.5791 11.9912 2.5791C15.7354 2.5791 18.5303 3.51953 18.5303 4.70605C18.5303 5.89258 15.7266 6.83301 11.9912 6.83301ZM20.1562 6.56934V6.21777C21.0791 6.29688 21.6064 6.7627 21.6064 7.51855C21.6064 8.33594 20.9736 8.83691 19.8838 8.83691C20.0596 8.125 20.1562 7.36914 20.1562 6.56934ZM11.9912 8.45898C14.8037 8.45898 17.0889 7.95801 18.5127 7.09668C18.3018 10.5771 15.9814 12.8975 12.4131 12.8975H11.5693C7.99219 12.8975 5.68945 10.5859 5.47852 7.09668C6.90234 7.95801 9.1875 8.45898 11.9912 8.45898ZM1.93652 13.5654C1.93652 12.7041 3.13184 11.8516 5.12695 11.2363C6.44531 13.2842 8.72168 14.5234 11.5693 14.5234H12.4131C15.2695 14.5234 17.5371 13.2842 18.8555 11.2451C20.8506 11.8516 22.0547 12.7041 22.0547 13.5654C22.0547 15.2354 17.5986 16.7998 11.9912 16.7998C6.39258 16.7998 1.93652 15.2354 1.93652 13.5654Z" fill="#1C1C1E"/>
</svg>
