<svg width="26" height="18" viewBox="0 0 26 18" fill="none" xmlns="http://www.w3.org/2000/svg">
<path d="M17.5879 8.74219C19.7148 8.74219 21.4375 6.87012 21.4375 4.56738C21.4375 2.2998 19.7236 0.489258 17.5879 0.489258C15.4785 0.489258 13.7383 2.32617 13.7383 4.58496C13.7471 6.87891 15.4697 8.74219 17.5879 8.74219ZM7.40137 8.94434C9.25586 8.94434 10.75 7.30078 10.75 5.27051C10.75 3.29297 9.25586 1.69336 7.40137 1.69336C5.56445 1.69336 4.04395 3.31934 4.05273 5.2793C4.05273 7.30957 5.55566 8.94434 7.40137 8.94434ZM17.5879 7.2041C16.375 7.2041 15.3467 6.06152 15.3467 4.57617C15.3467 3.14355 16.3662 2.02734 17.5879 2.02734C18.8184 2.02734 19.8291 3.12598 19.8291 4.56738C19.8291 6.04395 18.8096 7.2041 17.5879 7.2041ZM7.40137 7.42383C6.4082 7.42383 5.56445 6.47461 5.56445 5.2793C5.56445 4.13672 6.39941 3.20508 7.40137 3.20508C8.4209 3.20508 9.24707 4.11914 9.24707 5.27051C9.24707 6.47461 8.40332 7.42383 7.40137 7.42383ZM2.56738 17.0215H9.39648C8.91309 16.7402 8.58789 16.0986 8.64941 15.5186H2.48828C2.32129 15.5186 2.25098 15.4395 2.25098 15.29C2.25098 13.2773 4.60645 11.3613 7.39258 11.3613C8.37695 11.3613 9.36133 11.6074 10.1172 12.0293C10.416 11.5986 10.7852 11.2295 11.2686 10.9131C10.1523 10.2275 8.76367 9.8584 7.39258 9.8584C3.6748 9.8584 0.668945 12.5127 0.668945 15.4307C0.668945 16.4854 1.30176 17.0215 2.56738 17.0215ZM12.1123 17.0215H23.0635C24.584 17.0215 25.3223 16.5381 25.3223 15.501C25.3223 13.084 22.2988 9.86719 17.5879 9.86719C12.877 9.86719 9.85352 13.084 9.85352 15.501C9.85352 16.5381 10.5918 17.0215 12.1123 17.0215ZM11.8311 15.4834C11.6289 15.4834 11.5498 15.4131 11.5498 15.2549C11.5498 13.9102 13.7207 11.4053 17.5879 11.4053C21.4551 11.4053 23.626 13.9102 23.626 15.2549C23.626 15.4131 23.5469 15.4834 23.3359 15.4834H11.8311Z" fill="#1C1C1E"/>
</svg>
