<svg width="21" height="20" viewBox="0 0 21 20" fill="none" xmlns="http://www.w3.org/2000/svg">
<path fill-rule="evenodd" clip-rule="evenodd" d="M10.2059 1.94853C10.3897 1.85049 10.6103 1.85049 10.7941 1.94853L20.1691 6.94853C20.3728 7.05715 20.5 7.26918 20.5 7.5C20.5 7.73082 20.3728 7.94285 20.1691 8.05147L10.7941 13.0515C10.6103 13.1495 10.3897 13.1495 10.2059 13.0515L0.830882 8.05147C0.627218 7.94285 0.5 7.73082 0.5 7.5C0.5 7.26918 0.627218 7.05715 0.830882 6.94853L10.2059 1.94853ZM2.45312 7.5L10.5 11.7917L18.5469 7.5L10.5 3.20833L2.45312 7.5Z" fill="black"/>
<path fill-rule="evenodd" clip-rule="evenodd" d="M9.94853 7.20588C10.111 6.90131 10.4896 6.78609 10.7941 6.94853L15.4816 9.44853C15.6853 9.55715 15.8125 9.76918 15.8125 10V18.75C15.8125 19.0952 15.5327 19.375 15.1875 19.375C14.8423 19.375 14.5625 19.0952 14.5625 18.75V10.375L10.2059 8.05147C9.90131 7.88904 9.78609 7.51045 9.94853 7.20588Z" fill="black"/>
<path fill-rule="evenodd" clip-rule="evenodd" d="M3.31251 8.03906C3.65768 8.03906 3.93751 8.31888 3.93751 8.66406V12.9218L3.93888 12.9236L3.93884 12.9237C4.40235 13.5463 6.4575 15.9375 10.5 15.9375C14.5425 15.9375 16.5977 13.5463 17.0612 12.9237L17.0625 12.9219V8.66406C17.0625 8.31888 17.3423 8.03906 17.6875 8.03906C18.0327 8.03906 18.3125 8.31888 18.3125 8.66406V12.9297L18.3125 12.9323C18.3114 13.1998 18.2234 13.4596 18.0619 13.6727C17.4752 14.4598 15.093 17.1875 10.5 17.1875C5.90698 17.1875 3.52482 14.4598 2.93812 13.6727C2.77661 13.4596 2.68864 13.1998 2.68751 12.9323L2.6875 12.9297H2.68751V8.66406C2.68751 8.31888 2.96733 8.03906 3.31251 8.03906Z" fill="black"/>
</svg>
