<svg width="22" height="22" viewBox="0 0 22 22" fill="none" xmlns="http://www.w3.org/2000/svg">
<path d="M3.50002 5.41399L0.257019 2.17199L1.67202 0.756989L4.91402 3.99999H20.156C20.3119 3.99998 20.4656 4.0364 20.6049 4.10636C20.7442 4.17631 20.8652 4.27785 20.9583 4.40288C21.0513 4.52792 21.1139 4.67297 21.1409 4.82648C21.168 4.97998 21.1588 5.13768 21.114 5.28699L18.714 13.287C18.6523 13.4931 18.5257 13.6737 18.3531 13.8022C18.1806 13.9306 17.9712 14 17.756 14H5.50002V16H16.5V18H4.50002C4.2348 18 3.98045 17.8946 3.79291 17.7071C3.60538 17.5196 3.50002 17.2652 3.50002 17V5.41399ZM5.50002 5.99999V12H17.012L18.812 5.99999H5.50002ZM5.00002 22C4.60219 22 4.22066 21.842 3.93936 21.5606C3.65805 21.2793 3.50002 20.8978 3.50002 20.5C3.50002 20.1022 3.65805 19.7206 3.93936 19.4393C4.22066 19.158 4.60219 19 5.00002 19C5.39784 19 5.77938 19.158 6.06068 19.4393C6.34198 19.7206 6.50002 20.1022 6.50002 20.5C6.50002 20.8978 6.34198 21.2793 6.06068 21.5606C5.77938 21.842 5.39784 22 5.00002 22ZM17 22C16.6022 22 16.2207 21.842 15.9394 21.5606C15.6581 21.2793 15.5 20.8978 15.5 20.5C15.5 20.1022 15.6581 19.7206 15.9394 19.4393C16.2207 19.158 16.6022 19 17 19C17.3978 19 17.7794 19.158 18.0607 19.4393C18.342 19.7206 18.5 20.1022 18.5 20.5C18.5 20.8978 18.342 21.2793 18.0607 21.5606C17.7794 21.842 17.3978 22 17 22Z" fill="#0A1931"/>
</svg>
