<svg width="22" height="21" viewBox="0 0 22 21" fill="none" xmlns="http://www.w3.org/2000/svg">
<path d="M15.5 11C18.59 8.19 21.5 5.56 21.5 3.3C21.5 1.45 20.05 0 18.2 0C17.16 0 16.15 0.49 15.5 1.25C14.84 0.49 13.84 0 12.8 0C10.95 0 9.5 1.45 9.5 3.3C9.5 5.56 12.41 8.19 15.5 11ZM12.8 2C13.24 2 13.69 2.21 13.98 2.55L15.5 4.34L17.02 2.55C17.31 2.21 17.76 2 18.2 2C18.94 2 19.5 2.56 19.5 3.3C19.5 4.42 17.46 6.47 15.5 8.29C13.54 6.47 11.5 4.41 11.5 3.3C11.5 2.56 12.06 2 12.8 2ZM18.5 14H16.5C16.5 12.8 15.75 11.72 14.63 11.3L8.47 9H0.5V20H6.5V18.56L13.5 20.5L21.5 18V17C21.5 15.34 20.16 14 18.5 14ZM2.5 18V11H4.5V18H2.5ZM13.47 18.41L6.5 16.48V11H8.11L13.93 13.17C14.27 13.3 14.5 13.63 14.5 14C14.5 14 12.51 13.95 12.2 13.85L9.82 13.06L9.19 14.96L11.57 15.75C12.08 15.92 12.61 16.01 13.15 16.01H18.5C18.89 16.01 19.24 16.24 19.4 16.57L13.47 18.41Z" fill="white"/>
</svg>
