<svg width="24" height="24" viewBox="0 0 24 24" fill="none" xmlns="http://www.w3.org/2000/svg">
<path d="M18.15 20.1111H4.85V21.0556C4.85 21.306 4.74991 21.5463 4.57175 21.7234C4.39359 21.9005 4.15196 22 3.9 22H2.95C2.69804 22 2.45641 21.9005 2.27825 21.7234C2.10009 21.5463 2 21.306 2 21.0556V11.6111L4.356 6.14467C4.50261 5.80467 4.74641 5.51495 5.05715 5.31146C5.3679 5.10797 5.7319 4.99967 6.104 5H16.896C17.2678 5.00004 17.6314 5.10851 17.9417 5.31198C18.2521 5.51545 18.4956 5.80496 18.6421 6.14467L21 11.6111V21.0556C21 21.306 20.8999 21.5463 20.7218 21.7234C20.5436 21.9005 20.302 22 20.05 22H19.1C18.848 22 18.6064 21.9005 18.4282 21.7234C18.2501 21.5463 18.15 21.306 18.15 21.0556V20.1111ZM19.1 13.5H3.9V18.2222H19.1V13.5ZM4.0672 11.6111H18.9328L16.8969 6.88889H6.104L4.06815 11.6111H4.0672ZM6.275 17.2778C5.89707 17.2778 5.53461 17.1285 5.26737 16.8628C5.00013 16.5972 4.85 16.2368 4.85 15.8611C4.85 15.4854 5.00013 15.1251 5.26737 14.8594C5.53461 14.5937 5.89707 14.4444 6.275 14.4444C6.65293 14.4444 7.01539 14.5937 7.28263 14.8594C7.54987 15.1251 7.7 15.4854 7.7 15.8611C7.7 16.2368 7.54987 16.5972 7.28263 16.8628C7.01539 17.1285 6.65293 17.2778 6.275 17.2778V17.2778ZM16.725 17.2778C16.3471 17.2778 15.9846 17.1285 15.7174 16.8628C15.4501 16.5972 15.3 16.2368 15.3 15.8611C15.3 15.4854 15.4501 15.1251 15.7174 14.8594C15.9846 14.5937 16.3471 14.4444 16.725 14.4444C17.1029 14.4444 17.4654 14.5937 17.7326 14.8594C17.9999 15.1251 18.15 15.4854 18.15 15.8611C18.15 16.2368 17.9999 16.5972 17.7326 16.8628C17.4654 17.1285 17.1029 17.2778 16.725 17.2778V17.2778Z" fill="#0A1931"/>
</svg>
