<svg width="28" height="24" viewBox="0 0 28 24" fill="none" xmlns="http://www.w3.org/2000/svg">
<path d="M15.3947 17.5058C15.3948 19.3893 13.4849 20.1649 11.1291 20.1649C8.7732 20.1649 6.86345 19.3893 6.8634 17.5058C6.86337 16.1763 8.77318 15.5115 11.129 15.5115C13.4849 15.5115 15.3947 16.0636 15.3947 17.5058Z" fill="white"/>
<path d="M11.1291 14.542C8.71995 14.542 6.28174 15.2914 6.28174 16.7233V18.6622C6.28174 20.0941 8.71995 20.8435 11.1291 20.8435C13.5382 20.8435 15.9764 20.0941 15.9764 18.6622V16.7233C15.9764 15.2914 13.5382 14.542 11.1291 14.542ZM7.25121 18.6622V18.082C7.55821 18.2559 7.88329 18.3957 8.22067 18.4989V19.4107C7.5847 19.1615 7.25121 18.8648 7.25121 18.6622ZM13.068 18.734V19.6894C12.6477 19.7761 12.163 19.8396 11.6138 19.8629V18.8934C12.1017 18.874 12.5876 18.8207 13.068 18.734ZM10.6443 19.8634C10.1557 19.8447 9.66943 19.7867 9.19014 19.6899V18.7345C9.655 18.8188 10.146 18.8736 10.6443 18.8944V19.8634ZM14.0375 19.4107V18.4989C14.3749 18.3959 14.7 18.2561 15.0069 18.082V18.6622C15.0069 18.8648 14.6739 19.1615 14.0375 19.4107ZM11.1291 17.9351C8.61961 17.9351 7.25121 17.1348 7.25121 16.7233C7.25121 16.3118 8.61961 15.5115 11.1291 15.5115C13.6385 15.5115 15.0069 16.3118 15.0069 16.7233C15.0069 17.1348 13.6385 17.9351 11.1291 17.9351Z" fill="black"/>
<path d="M26.2527 17.5058C26.2528 19.3893 24.3429 20.1649 21.9871 20.1649C19.6312 20.1649 17.7215 19.3893 17.7214 17.5058C17.7214 16.1763 19.6312 15.5115 21.9871 15.5115C24.3429 15.5115 26.2527 16.0636 26.2527 17.5058Z" fill="white"/>
<path d="M21.9871 14.542C19.578 14.542 17.1398 15.2914 17.1398 16.7233V18.6622C17.1398 20.0941 19.578 20.8435 21.9871 20.8435C24.3962 20.8435 26.8344 20.0941 26.8344 18.6622V16.7233C26.8344 15.2914 24.3962 14.542 21.9871 14.542ZM18.1092 18.6622V18.082C18.4162 18.2559 18.7413 18.3957 19.0787 18.4989V19.4107C18.4427 19.1615 18.1092 18.8648 18.1092 18.6622ZM23.926 18.734V19.6894C23.5058 19.7761 23.021 19.8396 22.4718 19.8629V18.8934C22.9597 18.874 23.4456 18.8207 23.926 18.734ZM21.5024 19.8634C21.0138 19.8447 20.5275 19.7867 20.0482 19.6899V18.7345C20.513 18.8188 21.0041 18.8736 21.5024 18.8944V19.8634ZM24.8955 19.4107V18.4989C25.233 18.3959 25.5581 18.2561 25.865 18.082V18.6622C25.865 18.8648 25.532 19.1615 24.8955 19.4107ZM21.9871 17.9351C19.4776 17.9351 18.1092 17.1348 18.1092 16.7233C18.1092 16.3118 19.4776 15.5115 21.9871 15.5115C24.4966 15.5115 25.865 16.3118 25.865 16.7233C25.865 17.1348 24.4966 17.9351 21.9871 17.9351Z" fill="black"/>
<path d="M15.3947 15.1791C15.3948 17.0627 13.4849 17.8383 11.1291 17.8383C8.7732 17.8383 6.86345 17.0627 6.8634 15.1791C6.86337 13.8496 8.77318 13.1848 11.129 13.1848C13.4849 13.1848 15.3947 13.737 15.3947 15.1791Z" fill="white"/>
<path d="M11.1291 12.2153C8.71995 12.2153 6.28174 12.9647 6.28174 14.3966V16.3356C6.28174 17.7675 8.71995 18.5169 11.1291 18.5169C13.5382 18.5169 15.9764 17.7675 15.9764 16.3356V14.3966C15.9764 12.9647 13.5382 12.2153 11.1291 12.2153ZM7.25121 16.3356V15.7553C7.55821 15.9292 7.88329 16.069 8.22067 16.1722V17.084C7.5847 16.8348 7.25121 16.5382 7.25121 16.3356ZM13.068 16.4073V17.3627C12.6477 17.4495 12.163 17.513 11.6138 17.5363V16.5668C12.1017 16.5474 12.5876 16.4941 13.068 16.4073ZM10.6443 17.5367C10.1557 17.518 9.66943 17.46 9.19014 17.3632V16.4078C9.655 16.4921 10.146 16.5469 10.6443 16.5678V17.5367ZM14.0375 17.084V16.1722C14.3749 16.0692 14.7 15.9294 15.0069 15.7553V16.3356C15.0069 16.5382 14.6739 16.8348 14.0375 17.084ZM11.1291 15.6085C8.61961 15.6085 7.25121 14.8082 7.25121 14.3966C7.25121 13.9851 8.61961 13.1848 11.1291 13.1848C13.6385 13.1848 15.0069 13.9851 15.0069 14.3966C15.0069 14.8082 13.6385 15.6085 11.1291 15.6085Z" fill="black"/>
<path d="M26.2527 15.1791C26.2528 17.0627 24.3429 17.8383 21.9871 17.8383C19.6312 17.8383 17.7215 17.0627 17.7214 15.1791C17.7214 13.8496 19.6312 13.1848 21.9871 13.1848C24.3429 13.1848 26.2527 13.737 26.2527 15.1791Z" fill="white"/>
<path d="M21.9871 12.2153C19.578 12.2153 17.1398 12.9647 17.1398 14.3966V16.3356C17.1398 17.7675 19.578 18.5169 21.9871 18.5169C24.3962 18.5169 26.8344 17.7675 26.8344 16.3356V14.3966C26.8344 12.9647 24.3962 12.2153 21.9871 12.2153ZM18.1092 16.3356V15.7553C18.4162 15.9292 18.7413 16.069 19.0787 16.1722V17.084C18.4427 16.8348 18.1092 16.5382 18.1092 16.3356ZM23.926 16.4073V17.3627C23.5058 17.4495 23.021 17.513 22.4718 17.5363V16.5668C22.9597 16.5474 23.4456 16.4941 23.926 16.4073ZM21.5024 17.5367C21.0138 17.518 20.5275 17.46 20.0482 17.3632V16.4078C20.513 16.4921 21.0041 16.5469 21.5024 16.5678V17.5367ZM24.8955 17.084V16.1722C25.233 16.0692 25.5581 15.9294 25.865 15.7553V16.3356C25.865 16.5382 25.532 16.8348 24.8955 17.084ZM21.9871 15.6085C19.4776 15.6085 18.1092 14.8082 18.1092 14.3966C18.1092 13.9851 19.4776 13.1848 21.9871 13.1848C24.4966 13.1848 25.865 13.9851 25.865 14.3966C25.865 14.8082 24.4966 15.6085 21.9871 15.6085Z" fill="black"/>
<path d="M7.13836 12.8588C8.53003 14.128 7.81605 16.0617 6.22849 17.8024C4.64093 19.543 2.78097 20.4313 1.3893 19.1621C0.406941 18.2662 1.20275 16.4071 2.79031 14.6665C4.37787 12.9259 6.07278 11.887 7.13836 12.8588Z" fill="white"/>
<path d="M2.07406 14.0132C0.450603 15.7932 -0.638764 18.0996 0.419188 19.0645L1.85176 20.3711C2.90971 21.3361 5.10645 20.0396 6.72991 18.2596C8.35336 16.4797 9.44273 14.1732 8.38478 13.2083L6.95221 11.9017C5.89426 10.9368 3.69751 12.2332 2.07406 14.0132ZM2.50506 19.6549L2.07636 19.2639C2.4117 19.1542 2.73405 19.0082 3.03767 18.8285L3.71133 19.4429C3.09868 19.7449 2.65476 19.7914 2.50506 19.6549ZM6.47788 15.4055L7.18378 16.0493C6.96468 16.4183 6.68494 16.8192 6.33204 17.2407L5.61575 16.5874C5.93015 16.2139 6.21821 15.8189 6.47788 15.4055ZM5.67909 17.9573C5.33601 18.3057 4.96542 18.6259 4.57093 18.9148L3.86503 18.271C4.2406 17.9843 4.61197 17.6584 4.96317 17.3043L5.67909 17.9573ZM7.63115 15.1452L6.95748 14.5308C7.10878 14.212 7.22457 13.8776 7.30278 13.5336L7.73148 13.9246C7.88118 14.0611 7.87595 14.5071 7.63115 15.1452ZM4.58105 16.2997C2.88998 18.1538 1.37655 18.6256 1.07249 18.3483C0.768428 18.0709 1.09924 16.5206 2.79031 14.6665C4.48138 12.8124 5.99484 12.3406 6.29891 12.618C6.60297 12.8953 6.27213 14.4456 4.58105 16.2997Z" fill="black"/>
<path d="M26.2527 12.8525C26.2528 14.736 24.3429 15.5116 21.9871 15.5116C19.6312 15.5116 17.7215 14.736 17.7214 12.8525C17.7214 11.5229 19.6312 10.8582 21.9871 10.8582C24.3429 10.8582 26.2527 11.4103 26.2527 12.8525Z" fill="white"/>
<path d="M21.9871 9.88867C19.578 9.88867 17.1398 10.6381 17.1398 12.07V14.0089C17.1398 15.4408 19.578 16.1902 21.9871 16.1902C24.3962 16.1902 26.8344 15.4408 26.8344 14.0089V12.07C26.8344 10.6381 24.3962 9.88867 21.9871 9.88867ZM18.1092 14.0089V13.4287C18.4162 13.6025 18.7413 13.7423 19.0787 13.8456V14.7573C18.4427 14.5082 18.1092 14.2115 18.1092 14.0089ZM23.926 14.0806V15.0361C23.5058 15.1228 23.021 15.1863 22.4718 15.2096V14.2401C22.9597 14.2207 23.4456 14.1674 23.926 14.0806ZM21.5024 15.2101C21.0138 15.1914 20.5275 15.1333 20.0482 15.0365V14.0811C20.513 14.1655 21.0041 14.2203 21.5024 14.2411V15.2101ZM24.8955 14.7573V13.8456C25.233 13.7425 25.5581 13.6027 25.865 13.4287V14.0089C25.865 14.2115 25.532 14.5082 24.8955 14.7573ZM21.9871 13.2818C19.4776 13.2818 18.1092 12.4815 18.1092 12.07C18.1092 11.6584 19.4776 10.8581 21.9871 10.8581C24.4966 10.8581 25.865 11.6584 25.865 12.07C25.865 12.4815 24.4966 13.2818 21.9871 13.2818Z" fill="black"/>
<path d="M26.2527 10.5258C26.2528 12.4094 24.3429 13.1849 21.9871 13.1849C19.6312 13.1849 17.7215 12.4094 17.7214 10.5258C17.7214 9.19627 19.6312 8.53149 21.9871 8.53149C24.3429 8.53149 26.2527 9.08364 26.2527 10.5258Z" fill="white"/>
<path d="M21.9871 7.56201C19.578 7.56201 17.1398 8.31141 17.1398 9.74331V11.6822C17.1398 13.1142 19.578 13.8636 21.9871 13.8636C24.3962 13.8636 26.8344 13.1142 26.8344 11.6822V9.74331C26.8344 8.31141 24.3962 7.56201 21.9871 7.56201ZM18.1092 11.6822V11.102C18.4162 11.2759 18.7413 11.4157 19.0787 11.5189V12.4307C18.4427 12.1815 18.1092 11.8849 18.1092 11.6822ZM23.926 11.754V12.7094C23.5058 12.7962 23.021 12.8597 22.4718 12.8829V11.9135C22.9597 11.894 23.4456 11.8408 23.926 11.754ZM21.5024 12.8834C21.0138 12.8647 20.5275 12.8067 20.0482 12.7099V11.7545C20.513 11.8388 21.0041 11.8936 21.5024 11.9144V12.8834ZM24.8955 12.4307V11.5189C25.233 11.4159 25.5581 11.2761 25.865 11.102V11.6822C25.865 11.8849 25.532 12.1815 24.8955 12.4307ZM21.9871 10.9551C19.4776 10.9551 18.1092 10.1549 18.1092 9.74331C18.1092 9.33177 19.4776 8.53148 21.9871 8.53148C24.4966 8.53148 25.865 9.33177 25.865 9.74331C25.865 10.1549 24.4966 10.9551 21.9871 10.9551Z" fill="black"/>
<path d="M26.2527 8.19892C26.2528 10.0825 24.3429 10.858 21.9871 10.858C19.6312 10.858 17.7215 10.0825 17.7214 8.19892C17.7214 6.86937 19.6312 6.20459 21.9871 6.20459C24.3429 6.20459 26.2527 6.75674 26.2527 8.19892Z" fill="white"/>
<path d="M21.9871 5.23511C19.578 5.23511 17.1398 5.98451 17.1398 7.41641V9.35534C17.1398 10.7872 19.578 11.5366 21.9871 11.5366C24.3962 11.5366 26.8344 10.7872 26.8344 9.35534V7.41641C26.8344 5.98451 24.3962 5.23511 21.9871 5.23511ZM18.1092 9.35534V8.77512C18.4162 8.94898 18.7413 9.08877 19.0787 9.19199V10.1038C18.4427 9.85462 18.1092 9.55796 18.1092 9.35534ZM23.926 9.42708V10.3825C23.5058 10.4693 23.021 10.5328 22.4718 10.556V9.58656C22.9597 9.56714 23.4456 9.51385 23.926 9.42708ZM21.5024 10.5565C21.0138 10.5378 20.5275 10.4798 20.0482 10.383V9.42757C20.513 9.51191 21.0041 9.56669 21.5024 9.58753V10.5565ZM24.8955 10.1038V9.19199C25.233 9.08898 25.5581 8.94918 25.865 8.77512V9.35534C25.865 9.55796 25.532 9.85462 24.8955 10.1038ZM21.9871 8.62824C19.4776 8.62824 18.1092 7.82795 18.1092 7.41641C18.1092 7.00487 19.4776 6.20457 21.9871 6.20457C24.4966 6.20457 25.865 7.00487 25.865 7.41641C25.865 7.82795 24.4966 8.62824 21.9871 8.62824Z" fill="black"/>
<path d="M26.2527 5.87226C26.2528 7.7558 24.3429 8.53137 21.9871 8.53137C19.6312 8.53137 17.7215 7.7558 17.7214 5.87226C17.7214 4.54271 19.6312 3.87793 21.9871 3.87793C24.3429 3.87793 26.2527 4.43008 26.2527 5.87226Z" fill="white"/>
<path d="M21.9871 2.90845C19.578 2.90845 17.1398 3.65785 17.1398 5.08975V7.02868C17.1398 8.46059 19.578 9.20999 21.9871 9.20999C24.3962 9.20999 26.8344 8.46059 26.8344 7.02868V5.08975C26.8344 3.65785 24.3962 2.90845 21.9871 2.90845ZM18.1092 7.02868V6.44846C18.4162 6.62232 18.7413 6.76211 19.0787 6.86533V7.77711C18.4427 7.52796 18.1092 7.2313 18.1092 7.02868ZM23.926 7.10042V8.05583C23.5058 8.1426 23.021 8.2061 22.4718 8.22937V7.2599C22.9597 7.24048 23.4456 7.18719 23.926 7.10042ZM21.5024 8.22985C21.0138 8.21114 20.5275 8.15311 20.0482 8.05632V7.10091C20.513 7.18525 21.0041 7.24003 21.5024 7.26087V8.22985ZM24.8955 7.77711V6.86533C25.233 6.76232 25.5581 6.62252 25.865 6.44846V7.02868C25.865 7.2313 25.532 7.52796 24.8955 7.77711ZM21.9871 6.30158C19.4776 6.30158 18.1092 5.50129 18.1092 5.08975C18.1092 4.67821 19.4776 3.87791 21.9871 3.87791C24.4966 3.87791 25.865 4.67821 25.865 5.08975C25.865 5.50129 24.4966 6.30158 21.9871 6.30158Z" fill="black"/>
</svg>
