<svg width="28" height="28" viewBox="0 0 28 28" fill="none" xmlns="http://www.w3.org/2000/svg">
<path d="M18.7549 5.4541H11.917C11.3282 5.4541 10.959 5.78809 10.9678 6.32422C10.9766 6.86914 11.3282 7.20312 11.917 7.20312H18.6407C19.458 7.20312 19.8975 7.625 19.8975 8.47754V17.6094L18.6582 16.2559L17.9551 15.5615C17.586 15.2012 17.0674 15.166 16.7071 15.5439C16.3379 15.9043 16.3467 16.4316 16.7158 16.8008L19.7217 19.7979C20.3897 20.457 21.1543 20.457 21.8223 19.7979L24.8194 16.8008C25.1973 16.4316 25.2061 15.9043 24.8369 15.5439C24.4678 15.1748 23.958 15.1924 23.5801 15.5615L22.877 16.2559L21.6553 17.6006V8.31934C21.6553 6.42969 20.6533 5.4541 18.7549 5.4541ZM3.15433 11.791C3.52347 12.1602 4.04202 12.1426 4.41116 11.7734L5.11429 11.0791L6.34475 9.73438V19.0156C6.34475 20.8965 7.33792 21.8809 9.23636 21.8809H16.083C16.6631 21.8809 17.0323 21.5469 17.0235 21.002C17.0235 20.4658 16.6631 20.1318 16.083 20.1318H9.35061C8.54202 20.1318 8.09378 19.71 8.09378 18.8574V9.72559L9.33304 11.0791L10.0362 11.7734C10.4141 12.1338 10.9239 12.1602 11.293 11.791C11.6533 11.4219 11.6533 10.9033 11.2754 10.5342L8.26956 7.53711C7.60159 6.87793 6.84573 6.87793 6.17776 7.53711L3.1719 10.5342C2.80276 10.9033 2.79397 11.4219 3.15433 11.791Z" fill="#1C1C1E"/>
</svg>
