<svg width="20" height="20" viewBox="0 0 20 20" fill="none" xmlns="http://www.w3.org/2000/svg">
<path d="M10 18.75C7.67936 18.75 5.45376 17.8281 3.81282 16.1872C2.17187 14.5462 1.25 12.3206 1.25 10C1.25 7.67936 2.17187 5.45376 3.81282 3.81282C5.45376 2.17187 7.67936 1.25 10 1.25C12.3206 1.25 14.5462 2.17187 16.1872 3.81282C17.8281 5.45376 18.75 7.67936 18.75 10C18.75 12.3206 17.8281 14.5462 16.1872 16.1872C14.5462 17.8281 12.3206 18.75 10 18.75ZM10 20C12.6522 20 15.1957 18.9464 17.0711 17.0711C18.9464 15.1957 20 12.6522 20 10C20 7.34784 18.9464 4.8043 17.0711 2.92893C15.1957 1.05357 12.6522 0 10 0C7.34784 0 4.8043 1.05357 2.92893 2.92893C1.05357 4.8043 0 7.34784 0 10C0 12.6522 1.05357 15.1957 2.92893 17.0711C4.8043 18.9464 7.34784 20 10 20Z" fill="#0A1931"/>
<path d="M6.56875 7.2325C6.56704 7.27287 6.5736 7.31316 6.58804 7.3509C6.60247 7.38863 6.62448 7.42302 6.65269 7.45194C6.68091 7.48085 6.71474 7.5037 6.75211 7.51906C6.78948 7.53442 6.8296 7.54197 6.87 7.54125H7.90125C8.07375 7.54125 8.21125 7.4 8.23375 7.22875C8.34625 6.40875 8.90875 5.81125 9.91125 5.81125C10.7687 5.81125 11.5537 6.24 11.5537 7.27125C11.5537 8.065 11.0862 8.43 10.3475 8.985C9.50625 9.59625 8.84 10.31 8.8875 11.4688L8.89125 11.74C8.89256 11.822 8.92606 11.9002 8.98453 11.9577C9.04299 12.0153 9.12173 12.0475 9.20375 12.0475H10.2175C10.3004 12.0475 10.3799 12.0146 10.4385 11.956C10.4971 11.8974 10.53 11.8179 10.53 11.735V11.6038C10.53 10.7063 10.8712 10.445 11.7925 9.74625C12.5537 9.1675 13.3475 8.525 13.3475 7.17625C13.3475 5.2875 11.7525 4.375 10.0062 4.375C8.4225 4.375 6.6875 5.1125 6.56875 7.2325ZM8.515 14.4362C8.515 15.1025 9.04625 15.595 9.7775 15.595C10.5387 15.595 11.0625 15.1025 11.0625 14.4362C11.0625 13.7463 10.5375 13.2613 9.77625 13.2613C9.04625 13.2613 8.515 13.7463 8.515 14.4362Z" fill="#0A1931"/>
</svg>
