<svg width="24" height="24" viewBox="0 0 24 24" fill="none" xmlns="http://www.w3.org/2000/svg">
<path d="M16.7611 10.4972C17.2539 10.4985 17.742 10.4021 18.1973 10.2135C18.6525 10.0249 19.0659 9.74787 19.4133 9.39843L23.0227 5.7914C23.3081 5.50593 23.3344 5.0414 23.0625 4.74187C22.9943 4.66662 22.9114 4.60601 22.819 4.56374C22.7267 4.52147 22.6267 4.4984 22.5251 4.49595C22.4235 4.49349 22.3225 4.5117 22.2282 4.54946C22.1339 4.58722 22.0482 4.64375 21.9764 4.71562L18.7594 7.93031C18.6514 8.03819 18.5049 8.09879 18.3523 8.09879C18.1996 8.09879 18.0532 8.03819 17.9452 7.93031C17.7206 7.70625 17.7328 7.3275 17.9569 7.10343L21.1599 3.90046C21.2317 3.82866 21.2881 3.74303 21.3258 3.64876C21.3636 3.55449 21.3817 3.45354 21.3793 3.35203C21.3768 3.25052 21.3538 3.15057 21.3116 3.05823C21.2693 2.96589 21.2088 2.88309 21.1336 2.81484C20.9979 2.69173 20.8209 2.62399 20.6377 2.625C20.43 2.62514 20.2309 2.70776 20.0841 2.85468L16.8839 6.05437C16.7759 6.16226 16.6295 6.22285 16.4768 6.22285C16.3241 6.22285 16.1777 6.16226 16.0697 6.05437C15.8456 5.83031 15.8574 5.45156 16.0814 5.2275L19.2844 2.02546C19.3562 1.95366 19.4127 1.86803 19.4504 1.77376C19.4881 1.67949 19.5063 1.57854 19.5038 1.47703C19.5014 1.37552 19.4783 1.27557 19.4361 1.18323C19.3939 1.09089 19.3333 1.00809 19.2581 0.93984C19.1224 0.816728 18.9454 0.748987 18.7622 0.749996C18.5545 0.750242 18.3555 0.832844 18.2086 0.979683L14.6016 4.58671C14.2521 4.93423 13.975 5.34763 13.7864 5.80296C13.5978 6.2583 13.5014 6.74652 13.5028 7.23937V7.62515C13.5029 7.72378 13.4835 7.82146 13.4458 7.9126C13.4081 8.00373 13.3527 8.08653 13.283 8.15625L11.6138 9.82593C11.5964 9.84337 11.5757 9.8572 11.5529 9.86663C11.5301 9.87607 11.5057 9.88093 11.4811 9.88093C11.4565 9.88093 11.4321 9.87607 11.4093 9.86663C11.3865 9.8572 11.3659 9.84337 11.3485 9.82593L3.22595 1.70296C3.08576 1.56262 2.89568 1.48352 2.69732 1.483C2.49895 1.48247 2.30845 1.56055 2.16752 1.70015C1.45736 2.40375 1.07814 3.39703 1.07814 4.57218C1.07345 6.51281 2.09345 8.74406 3.74017 10.3884L7.74564 14.3939C8.31494 14.962 9.08635 15.2812 9.89064 15.2812C10.147 15.2814 10.4024 15.2486 10.6505 15.1837C10.7128 15.1674 10.7769 15.1591 10.8413 15.1589C11.0295 15.1589 11.2109 15.2301 11.3489 15.3581L11.8828 15.8512C12.0205 15.9919 12.0979 16.1808 12.0985 16.3777V16.6373C12.0971 17.2277 12.3291 17.7947 12.7439 18.2147L16.965 22.507L16.9692 22.5117C17.4377 22.9802 18.0731 23.2433 18.7356 23.2433C19.3982 23.2432 20.0335 22.98 20.502 22.5115C20.9704 22.043 21.2335 21.4076 21.2335 20.7451C21.2335 20.0825 20.9702 19.4472 20.5017 18.9787L14.1745 12.6516C14.1571 12.6341 14.1433 12.6135 14.1338 12.5907C14.1244 12.5679 14.1196 12.5435 14.1196 12.5189C14.1196 12.4943 14.1244 12.4699 14.1338 12.4471C14.1433 12.4243 14.1571 12.4037 14.1745 12.3862L15.8438 10.717C15.9134 10.6473 15.9961 10.592 16.0872 10.5543C16.1782 10.5166 16.2758 10.4972 16.3744 10.4972H16.7611Z" stroke="black"/>
<path d="M9.89064 16.7812C8.68986 16.7788 7.53848 16.303 6.68626 15.457L6.03658 14.8073C5.96628 14.7372 5.87103 14.6978 5.77173 14.6978C5.67243 14.6978 5.57719 14.7372 5.50689 14.8073L1.52251 18.7711C0.812358 19.4813 0.558764 20.5266 0.910327 21.5503C0.930003 21.608 0.953331 21.6644 0.98017 21.7191C1.45314 22.6875 2.37095 23.25 3.37501 23.25C3.72031 23.2508 4.06235 23.1832 4.3813 23.0509C4.70026 22.9186 4.98979 22.7244 5.23314 22.4794L10.5469 17.1403C10.5693 17.1175 10.5864 17.0901 10.5971 17.06C10.6078 17.0298 10.6117 16.9978 10.6088 16.9659V16.9537C10.6067 16.9245 10.5987 16.896 10.5853 16.87C10.5719 16.8439 10.5534 16.8208 10.5308 16.8021C10.5083 16.7834 10.4821 16.7695 10.454 16.7611C10.426 16.7528 10.3965 16.7502 10.3674 16.7536C10.209 16.7711 10.0499 16.7804 9.89064 16.7812V16.7812Z" stroke="black"/>
</svg>
