<svg width="20" height="21" viewBox="0 0 20 21" fill="none" xmlns="http://www.w3.org/2000/svg">
<path fill-rule="evenodd" clip-rule="evenodd" d="M19.375 13.125C19.375 13.8499 18.8154 14.4375 18.125 14.4375L1.875 14.4375C1.18464 14.4375 0.625 13.8499 0.625 13.125V3.9375C0.625 3.21263 1.18464 2.625 1.875 2.625L18.125 2.625C18.8154 2.625 19.375 3.21263 19.375 3.9375V13.125ZM1.875 13.125L18.125 13.125V3.9375L1.875 3.9375V13.125Z" fill="#0A1931"/>
<path fill-rule="evenodd" clip-rule="evenodd" d="M1.875 15.75C1.875 15.3876 2.15482 15.0938 2.5 15.0938H17.5C17.8452 15.0938 18.125 15.3876 18.125 15.75C18.125 16.1124 17.8452 16.4062 17.5 16.4062H2.5C2.15482 16.4062 1.875 16.1124 1.875 15.75ZM3.125 17.7188C3.125 17.3563 3.40482 17.0625 3.75 17.0625H16.25C16.5952 17.0625 16.875 17.3563 16.875 17.7188C16.875 18.0812 16.5952 18.375 16.25 18.375H3.75C3.40482 18.375 3.125 18.0812 3.125 17.7188Z" fill="#0A1931"/>
<path fill-rule="evenodd" clip-rule="evenodd" d="M10 5.90625C8.61929 5.90625 7.5 7.0815 7.5 8.53125C7.5 9.981 8.61929 11.1562 10 11.1562C11.3807 11.1562 12.5 9.981 12.5 8.53125C12.5 7.0815 11.3807 5.90625 10 5.90625ZM6.25 8.53125C6.25 6.35663 7.92893 4.59375 10 4.59375C12.0711 4.59375 13.75 6.35663 13.75 8.53125C13.75 10.7059 12.0711 12.4688 10 12.4688C7.92893 12.4688 6.25 10.7059 6.25 8.53125Z" fill="#0A1931"/>
<path fill-rule="evenodd" clip-rule="evenodd" d="M4.375 2.625C4.72018 2.625 5 2.91881 5 3.28125C5 3.79833 4.903 4.31035 4.71455 4.78807C4.52609 5.26579 4.24987 5.69985 3.90165 6.06548C3.55343 6.43111 3.14003 6.72115 2.68506 6.91903C2.23009 7.1169 1.74246 7.21875 1.25 7.21875C0.904822 7.21875 0.625 6.92494 0.625 6.5625C0.625 6.20006 0.904822 5.90625 1.25 5.90625C1.5783 5.90625 1.90339 5.83835 2.20671 5.70643C2.51002 5.57452 2.78562 5.38116 3.01777 5.13741C3.24991 4.89365 3.43406 4.60427 3.5597 4.28579C3.68534 3.96731 3.75 3.62597 3.75 3.28125C3.75 2.91881 4.02982 2.625 4.375 2.625ZM15.625 2.625C15.9702 2.625 16.25 2.91881 16.25 3.28125C16.25 3.97744 16.5134 4.64512 16.9822 5.13741C17.4511 5.62969 18.087 5.90625 18.75 5.90625C19.0952 5.90625 19.375 6.20006 19.375 6.5625C19.375 6.92494 19.0952 7.21875 18.75 7.21875C17.7554 7.21875 16.8016 6.80391 16.0983 6.06548C15.3951 5.32706 15 4.32554 15 3.28125C15 2.91881 15.2798 2.625 15.625 2.625ZM0.625 10.5C0.625 10.1376 0.904822 9.84375 1.25 9.84375C1.74246 9.84375 2.23009 9.9456 2.68506 10.1435C3.14003 10.3414 3.55343 10.6314 3.90165 10.997C4.24987 11.3626 4.52609 11.7967 4.71455 12.2744C4.903 12.7522 5 13.2642 5 13.7812C5 14.1437 4.72018 14.4375 4.375 14.4375C4.02982 14.4375 3.75 14.1437 3.75 13.7812C3.75 13.4365 3.68534 13.0952 3.5597 12.7767C3.43406 12.4582 3.24991 12.1688 3.01777 11.9251C2.78562 11.6813 2.51002 11.488 2.20671 11.3561C1.90339 11.2241 1.5783 11.1562 1.25 11.1562C0.904822 11.1562 0.625 10.8624 0.625 10.5ZM16.0983 10.997C16.8016 10.2586 17.7554 9.84375 18.75 9.84375C19.0952 9.84375 19.375 10.1376 19.375 10.5C19.375 10.8624 19.0952 11.1562 18.75 11.1562C18.087 11.1562 17.4511 11.4328 16.9822 11.9251C16.5134 12.4174 16.25 13.0851 16.25 13.7812C16.25 14.1437 15.9702 14.4375 15.625 14.4375C15.2798 14.4375 15 14.1437 15 13.7812C15 12.737 15.3951 11.7354 16.0983 10.997Z" fill="#0A1931"/>
</svg>
