<svg width="19" height="17" viewBox="0 0 19 17" fill="none" xmlns="http://www.w3.org/2000/svg">
<path d="M16.15 15.1111H2.85V16.0556C2.85 16.306 2.74991 16.5463 2.57175 16.7234C2.39359 16.9005 2.15196 17 1.9 17H0.95C0.698044 17 0.456408 16.9005 0.278249 16.7234C0.100089 16.5463 0 16.306 0 16.0556V6.61111L2.356 1.14467C2.50261 0.804667 2.74641 0.514948 3.05715 0.311459C3.3679 0.107971 3.7319 -0.000328259 4.104 7.47401e-07H14.896C15.2678 4.15669e-05 15.6314 0.108514 15.9417 0.311979C16.2521 0.515445 16.4956 0.804963 16.6421 1.14467L19 6.61111V16.0556C19 16.306 18.8999 16.5463 18.7218 16.7234C18.5436 16.9005 18.302 17 18.05 17H17.1C16.848 17 16.6064 16.9005 16.4282 16.7234C16.2501 16.5463 16.15 16.306 16.15 16.0556V15.1111ZM17.1 8.5H1.9V13.2222H17.1V8.5ZM2.0672 6.61111H16.9328L14.8969 1.88889H4.104L2.06815 6.61111H2.0672ZM4.275 12.2778C3.89707 12.2778 3.53461 12.1285 3.26737 11.8628C3.00013 11.5972 2.85 11.2368 2.85 10.8611C2.85 10.4854 3.00013 10.1251 3.26737 9.85938C3.53461 9.5937 3.89707 9.44444 4.275 9.44444C4.65293 9.44444 5.01539 9.5937 5.28263 9.85938C5.54987 10.1251 5.7 10.4854 5.7 10.8611C5.7 11.2368 5.54987 11.5972 5.28263 11.8628C5.01539 12.1285 4.65293 12.2778 4.275 12.2778ZM14.725 12.2778C14.3471 12.2778 13.9846 12.1285 13.7174 11.8628C13.4501 11.5972 13.3 11.2368 13.3 10.8611C13.3 10.4854 13.4501 10.1251 13.7174 9.85938C13.9846 9.5937 14.3471 9.44444 14.725 9.44444C15.1029 9.44444 15.4654 9.5937 15.7326 9.85938C15.9999 10.1251 16.15 10.4854 16.15 10.8611C16.15 11.2368 15.9999 11.5972 15.7326 11.8628C15.4654 12.1285 15.1029 12.2778 14.725 12.2778Z" fill="#0A1931"/>
</svg>
