<svg width="20" height="21" viewBox="0 0 20 21" fill="none" xmlns="http://www.w3.org/2000/svg">
<path fill-rule="evenodd" clip-rule="evenodd" d="M0.625 9.93237C0.625 9.5872 0.904822 9.30737 1.25 9.30737H18.75C19.0952 9.30737 19.375 9.5872 19.375 9.93237C19.375 10.2776 19.0952 10.5574 18.75 10.5574H1.25C0.904822 10.5574 0.625 10.2776 0.625 9.93237Z" fill="black"/>
<path fill-rule="evenodd" clip-rule="evenodd" d="M14.375 14.3074C14.7202 14.3074 15 14.5872 15 14.9324L15 16.8074L16.875 16.8074V14.9324C16.875 14.5872 17.1548 14.3074 17.5 14.3074C17.8452 14.3074 18.125 14.5872 18.125 14.9324V16.8074C18.125 17.1389 17.9933 17.4568 17.7589 17.6913C17.5245 17.9257 17.2065 18.0574 16.875 18.0574H15C14.6685 18.0574 14.3505 17.9257 14.1161 17.6913C13.8817 17.4568 13.75 17.1389 13.75 16.8074V14.9324C13.75 14.5872 14.0298 14.3074 14.375 14.3074Z" fill="black"/>
<path fill-rule="evenodd" clip-rule="evenodd" d="M2.5 14.3074C2.84518 14.3074 3.125 14.5872 3.125 14.9324V16.8074H5V14.9324C5 14.5872 5.27982 14.3074 5.625 14.3074C5.97018 14.3074 6.25 14.5872 6.25 14.9324V16.8074C6.25 17.1389 6.1183 17.4568 5.88388 17.6913C5.64946 17.9257 5.33152 18.0574 5 18.0574H3.125C2.79348 18.0574 2.47554 17.9257 2.24112 17.6913C2.0067 17.4568 1.875 17.1389 1.875 16.8074V14.9324C1.875 14.5872 2.15482 14.3074 2.5 14.3074Z" fill="black"/>
<path fill-rule="evenodd" clip-rule="evenodd" d="M4.375 12.4324C4.375 12.0872 4.65482 11.8074 5 11.8074H6.25C6.59518 11.8074 6.875 12.0872 6.875 12.4324C6.875 12.7776 6.59518 13.0574 6.25 13.0574H5C4.65482 13.0574 4.375 12.7776 4.375 12.4324Z" fill="black"/>
<path fill-rule="evenodd" clip-rule="evenodd" d="M13.125 12.4324C13.125 12.0872 13.4048 11.8074 13.75 11.8074H15C15.3452 11.8074 15.625 12.0872 15.625 12.4324C15.625 12.7776 15.3452 13.0574 15 13.0574H13.75C13.4048 13.0574 13.125 12.7776 13.125 12.4324Z" fill="black"/>
<path fill-rule="evenodd" clip-rule="evenodd" d="M5.40625 3.68237H14.5963C14.8386 3.68335 15.0755 3.75476 15.278 3.88792C15.4798 4.02062 15.6388 4.20894 15.7359 4.43008C15.7362 4.43085 15.7366 4.43161 15.7369 4.43238L18.071 9.6783C18.1066 9.75828 18.125 9.84484 18.125 9.93237V14.9324C18.125 15.2776 17.8452 15.5574 17.5 15.5574H2.5C2.15482 15.5574 1.875 15.2776 1.875 14.9324V9.93237C1.875 9.84484 1.89339 9.75828 1.92897 9.6783L4.26416 4.42998C4.36121 4.20888 4.52022 4.0206 4.722 3.88792C4.92452 3.75476 5.16137 3.68335 5.40374 3.68238L5.40625 3.68237ZM5.40876 4.93237L5.40698 4.93645L3.125 10.0651V14.3074H16.875V10.0651L14.5912 4.93237L5.40876 4.93237Z" fill="black"/>
</svg>
