<svg width="22" height="21" viewBox="0 0 22 21" fill="none" xmlns="http://www.w3.org/2000/svg">
<path d="M20.8079 10.4305L11.7517 1.37892L11.1446 0.771885C11.0063 0.634487 10.8193 0.557373 10.6243 0.557373C10.4294 0.557373 10.2423 0.634487 10.104 0.771885L0.440722 10.4305C0.298998 10.5717 0.186991 10.7398 0.111313 10.925C0.0356348 11.1101 -0.00218116 11.3086 9.71477e-05 11.5086C0.00947215 12.3336 0.696191 12.9922 1.52119 12.9922H2.51728V20.6258H18.7313V12.9922H19.7485C20.1493 12.9922 20.5267 12.8352 20.8103 12.5516C20.9499 12.4124 21.0605 12.2469 21.1358 12.0646C21.211 11.8824 21.2493 11.687 21.2485 11.4899C21.2485 11.0914 21.0915 10.7141 20.8079 10.4305ZM11.9368 18.9383H9.31182V14.157H11.9368V18.9383ZM17.0438 11.3047V18.9383H13.4368V13.5945C13.4368 13.0766 13.0173 12.657 12.4993 12.657H8.74932C8.23135 12.657 7.81182 13.0766 7.81182 13.5945V18.9383H4.20478V11.3047H1.95478L10.6267 2.63985L11.1681 3.18126L19.2962 11.3047H17.0438Z" fill="#FCFCFC"/>
</svg>
