<svg width="16" height="22" viewBox="0 0 16 22" fill="none" xmlns="http://www.w3.org/2000/svg">
<path fill-rule="evenodd" clip-rule="evenodd" d="M3.47453 2.46757C3.86519 2.06947 4.29379 1.7336 4.74847 1.45995C6.74808 0.256513 9.252 0.256513 11.2515 1.45995C11.7062 1.7336 12.1348 2.06947 12.5255 2.46757L8 7.0792L3.47453 2.46757ZM8 4.77338L5.9304 2.66438C7.23568 2.02898 8.7644 2.02898 10.0696 2.66438L8 4.77338Z" fill="black"/>
<path d="M0 13.4051C0 10.8525 3.45897 6.68142 5.26115 5.18661L6.4 6.34714C4.88412 7.53979 1.6 11.3025 1.6 13.4051C1.6 17.007 4.46538 19.9269 8 19.9269C11.5346 19.9269 14.4 17.007 14.4 13.4051C14.4 11.3025 11.1159 7.53979 9.6 6.34714L10.7389 5.18661C12.541 6.68142 16 10.8525 16 13.4051C16 17.9074 12.4182 21.5573 8 21.5573C3.58172 21.5573 0 17.9074 0 13.4051Z" fill="black"/>
<path fill-rule="evenodd" clip-rule="evenodd" d="M3.47453 2.46757C3.86519 2.06947 4.29379 1.7336 4.74847 1.45995C6.74808 0.256513 9.252 0.256513 11.2515 1.45995C11.7062 1.7336 12.1348 2.06947 12.5255 2.46757L8 7.0792L3.47453 2.46757ZM8 4.77338L5.9304 2.66438C7.23568 2.02898 8.7644 2.02898 10.0696 2.66438L8 4.77338Z" stroke="black"/>
<path d="M0 13.4051C0 10.8525 3.45897 6.68142 5.26115 5.18661L6.4 6.34714C4.88412 7.53979 1.6 11.3025 1.6 13.4051C1.6 17.007 4.46538 19.9269 8 19.9269C11.5346 19.9269 14.4 17.007 14.4 13.4051C14.4 11.3025 11.1159 7.53979 9.6 6.34714L10.7389 5.18661C12.541 6.68142 16 10.8525 16 13.4051C16 17.9074 12.4182 21.5573 8 21.5573C3.58172 21.5573 0 17.9074 0 13.4051Z" stroke="black"/>
</svg>
