<svg width="17" height="18" viewBox="0 0 17 18" fill="none" xmlns="http://www.w3.org/2000/svg">
<path d="M1.15632 10.2137H7.34368V16.401C7.34368 17.0299 7.86098 17.5574 8.5 17.5574C9.13902 17.5574 9.65632 17.0299 9.65632 16.401V10.2137H15.8437C16.4726 10.2137 17 9.69639 17 9.05737C17 8.41835 16.4726 7.90105 15.8437 7.90105H9.65632V1.7137C9.65632 1.08482 9.13902 0.557373 8.5 0.557373C7.86098 0.557373 7.34368 1.08482 7.34368 1.7137V7.90105H1.15632C0.527446 7.90105 0 8.41835 0 9.05737C0 9.69639 0.527446 10.2137 1.15632 10.2137Z" fill="#0A1931"/>
</svg>
