<svg width="21" height="21" viewBox="0 0 21 21" fill="none" xmlns="http://www.w3.org/2000/svg">
<path fill-rule="evenodd" clip-rule="evenodd" d="M10.2059 2.5059C10.3897 2.40786 10.6103 2.40786 10.7941 2.5059L20.1691 7.5059C20.3728 7.61452 20.5 7.82655 20.5 8.05737C20.5 8.28819 20.3728 8.50022 20.1691 8.60884L10.7941 13.6088C10.6103 13.7069 10.3897 13.7069 10.2059 13.6088L0.830882 8.60884C0.627218 8.50022 0.5 8.28819 0.5 8.05737C0.5 7.82655 0.627218 7.61452 0.830882 7.5059L10.2059 2.5059ZM2.45312 8.05737L10.5 12.349L18.5469 8.05737L10.5 3.76571L2.45312 8.05737Z" fill="black"/>
<path fill-rule="evenodd" clip-rule="evenodd" d="M9.94853 7.76326C10.111 7.45869 10.4896 7.34347 10.7941 7.5059L15.4816 10.0059C15.6853 10.1145 15.8125 10.3266 15.8125 10.5574V19.3074C15.8125 19.6526 15.5327 19.9324 15.1875 19.9324C14.8423 19.9324 14.5625 19.6526 14.5625 19.3074V10.9324L10.2059 8.60884C9.90131 8.44641 9.78609 8.06783 9.94853 7.76326Z" fill="black"/>
<path fill-rule="evenodd" clip-rule="evenodd" d="M3.31251 8.59644C3.65768 8.59644 3.93751 8.87626 3.93751 9.22144V13.4792L3.93888 13.481L3.93884 13.481C4.40235 14.1037 6.4575 16.4949 10.5 16.4949C14.5425 16.4949 16.5977 14.1037 17.0612 13.481L17.0625 13.4792V9.22144C17.0625 8.87626 17.3423 8.59644 17.6875 8.59644C18.0327 8.59644 18.3125 8.87626 18.3125 9.22144V13.4871L18.3125 13.4897C18.3114 13.7572 18.2234 14.017 18.0619 14.2301C17.4752 15.0172 15.093 17.7449 10.5 17.7449C5.90698 17.7449 3.52482 15.0171 2.93812 14.2301C2.77661 14.017 2.68864 13.7572 2.68751 13.4897L2.6875 13.4871H2.68751V9.22144C2.68751 8.87626 2.96733 8.59644 3.31251 8.59644Z" fill="black"/>
</svg>
