<svg width="11" height="20" viewBox="0 0 11 20" fill="none" xmlns="http://www.w3.org/2000/svg">
<path fill-rule="evenodd" clip-rule="evenodd" d="M9.6202 19.3333C9.53953 19.3278 9.519 19.3284 9.43913 19.3147C9.25952 19.2837 9.08678 19.2156 8.93438 19.1156C8.85731 19.0651 8.79004 19.0063 8.72283 18.9435L0.722491 10.9432C0.667289 10.8841 0.651888 10.8706 0.602886 10.806C0.547884 10.7335 0.500348 10.6553 0.461213 10.573C0.290273 10.2136 0.290273 9.78708 0.461213 9.42767C0.500348 9.3454 0.547884 9.26719 0.602886 9.19466C0.651888 9.13012 0.667289 9.11659 0.722491 9.05752L8.72283 1.05718C8.78197 1.00197 8.7955 0.986506 8.86004 0.937571C9.02951 0.808965 9.22952 0.722162 9.43913 0.68596C9.5888 0.660226 9.74261 0.660226 9.89228 0.68596C10.012 0.706628 10.1287 0.743696 10.2384 0.795832C10.6549 0.993907 10.9449 1.40479 10.9921 1.86361C11.0107 2.04495 10.9917 2.22963 10.9366 2.40337C10.8907 2.54811 10.8199 2.68471 10.7282 2.80565C10.6792 2.87025 10.6638 2.88372 10.6086 2.94286L3.55108 10.0004L10.6086 17.0579L10.6707 17.1244C10.7217 17.1871 10.7363 17.2017 10.7807 17.2694C10.8639 17.3963 10.9253 17.5375 10.9612 17.685C10.9899 17.803 11.0025 17.9248 10.9983 18.0462C10.9826 18.5072 10.7213 18.9369 10.3192 19.163C10.1869 19.2374 10.0419 19.2889 9.89228 19.3147C9.81241 19.3284 9.79188 19.3278 9.71121 19.3333C9.68087 19.3333 9.65054 19.3333 9.6202 19.3333Z" fill="#0A1931"/>
</svg>
