<svg width="37" height="41" viewBox="0 0 37 41" fill="none" xmlns="http://www.w3.org/2000/svg">
<path d="M25.2572 33.8833L23.0133 31.1406C18.625 34.3321 17.2785 36.8754 17.7771 39.1194C17.6109 38.9532 17.5279 39.6181 18.7746 40.3661C20.2259 41.2369 21.6003 40.6154 22.2652 40.1168C22.5976 39.9505 23.6615 39.2191 25.2572 37.6234C26.853 36.0276 25.9221 34.4651 25.2572 33.8833Z" fill="#B3B3B3"/>
<path fill-rule="evenodd" clip-rule="evenodd" d="M24.8542 3.30507C20.4995 -1.09002 20.1854 -1.40704 15.0344 4.21224C11.3064 8.27917 4.56229 15.1 1.57025 17.9258C0.323571 19.1034 -0.673755 20.4192 0.572899 22.1646L18.0265 39.8675C17.6941 38.7039 17.5278 36.8754 18.7744 35.3794C19.2256 34.838 21.2935 32.8539 23.9048 30.3486C27.6079 26.7957 32.4036 22.1945 35.2307 19.1725C36.228 18.3414 37.7739 16.2303 35.9787 14.4351L25.7559 4.21224C25.4367 3.893 25.1369 3.59044 24.8542 3.30507ZM19.6976 19.9469C21.2124 19.9469 22.4403 18.7189 22.4403 17.2042C22.4403 15.6894 21.2124 14.4615 19.6976 14.4615C18.1829 14.4615 16.9549 15.6894 16.9549 17.2042C16.9549 18.7189 18.1829 19.9469 19.6976 19.9469Z" fill="#D9D9D9"/>
<path fill-rule="evenodd" clip-rule="evenodd" d="M24.8542 3.30507C20.4995 -1.09002 20.1854 -1.40704 15.0344 4.21224C11.3064 8.27917 4.56229 15.1 1.57025 17.9258C0.323571 19.1034 -0.673755 20.4192 0.572899 22.1646L18.0265 39.8675C17.6941 38.7039 17.5278 36.8754 18.7744 35.3794C19.2256 34.838 21.2935 32.8539 23.9048 30.3486C27.6079 26.7957 32.4036 22.1945 35.2307 19.1725C36.228 18.3414 37.7739 16.2303 35.9787 14.4351L25.7559 4.21224C25.4367 3.893 25.1369 3.59044 24.8542 3.30507ZM19.6976 19.9469C21.2124 19.9469 22.4403 18.7189 22.4403 17.2042C22.4403 15.6894 21.2124 14.4615 19.6976 14.4615C18.1829 14.4615 16.9549 15.6894 16.9549 17.2042C16.9549 18.7189 18.1829 19.9469 19.6976 19.9469Z" fill="white"/>
</svg>
