<svg width="19" height="21" viewBox="0 0 19 21" fill="none" xmlns="http://www.w3.org/2000/svg">
<path d="M5.46582 20.7686H13.543C14.8965 20.7686 15.7666 19.9512 15.8369 18.5977L16.4258 5.94142H17.3926C17.8408 5.94142 18.1836 5.58986 18.1836 5.15041C18.1836 4.71095 17.832 4.37697 17.3926 4.37697H13.4902V3.05861C13.4902 1.70509 12.6289 0.914078 11.1611 0.914078H7.82129C6.35352 0.914078 5.49219 1.70509 5.49219 3.05861V4.37697H1.60742C1.16797 4.37697 0.816406 4.71974 0.816406 5.15041C0.816406 5.59865 1.16797 5.94142 1.60742 5.94142H2.57422L3.16309 18.5977C3.2334 19.96 4.09473 20.7686 5.46582 20.7686ZM7.13574 3.13771C7.13574 2.68947 7.45215 2.39943 7.93555 2.39943H11.0469C11.5303 2.39943 11.8467 2.68947 11.8467 3.13771V4.37697H7.13574V3.13771ZM5.6416 19.1953C5.1582 19.1953 4.80664 18.835 4.78027 18.3164L4.19141 5.94142H14.7822L14.2109 18.3164C14.1934 18.8438 13.8506 19.1953 13.3496 19.1953H5.6416ZM6.90723 17.7803C7.28516 17.7803 7.52246 17.543 7.51367 17.1914L7.25 7.99806C7.24121 7.6465 6.99512 7.41798 6.63477 7.41798C6.26562 7.41798 6.02832 7.65529 6.03711 8.00685L6.30078 17.2002C6.30957 17.5518 6.55566 17.7803 6.90723 17.7803ZM9.5 17.7803C9.86914 17.7803 10.124 17.5518 10.124 17.2002V8.00685C10.124 7.65529 9.86914 7.41798 9.5 7.41798C9.13086 7.41798 8.88477 7.65529 8.88477 8.00685V17.2002C8.88477 17.5518 9.13086 17.7803 9.5 17.7803ZM12.0928 17.7891C12.4443 17.7891 12.6904 17.5518 12.6992 17.2002L12.9629 8.00685C12.9717 7.65529 12.7344 7.42677 12.3652 7.42677C12.0049 7.42677 11.7588 7.65529 11.75 8.00685L11.4863 17.2002C11.4775 17.543 11.7148 17.7891 12.0928 17.7891Z" fill="#FF5678"/>
</svg>
